# xmcd
#
# Track frame offsets:
#	150
#	10671
#	19319
#	31043
#	50420
#	61960
#	75563
#	86510
#	98883
#	124655
#	133990
#	145089
#	159124
#	174771
#	190636
#	201539
#
# Disc length: 2815
#
# Revision: 2
# Processed by: cddbd v1.5.1PL0 Copyright (c) Steve Scherf et al.
# Submitted via: audiograbber 1.81.03
# Normalized: r1:TDELIM( - )
#
DISCID=c40afd10
DTITLE=Various Artist - Yulesville
DYEAR=2003
DGENRE=Vocal
TTITLE0=Pearl Bailey - Jingle Bells Cha Cha
TTITLE1=Dean Martin - Winter Wonderland
TTITLE2=Julie London - I'd Like You For Christmas
TTITLE3=Sergio Mendes - The Christmas Song
TTITLE4=Lionel Hampton - White Christmas
TTITLE5=Leon Redbone - That Old Christmas Moon
TTITLE6=Marlowe Morris - Rockin' Around The Christmas Tree
TTITLE7=Claudine Longet - Snow
TTITLE8=Four Piece Suit - Let It Snow!/Santa Suit
TTITLE9=Randy Van Horne Singers - It Happened In Sun Valley
TTITLE10=Louis Prima and Keely Smith - Shake Hands With Santa Claus
TTITLE11=Duke Ellington - Sugar Rum Cherry
TTITLE12=Holly Cole - Christmas Trees And Holly Leaves
TTITLE13=Ann-Margaret and Al Hirt - Baby It's Cold Outside
TTITLE14=Booker T and The MGs - We Wish You A Merry Christmas
TTITLE15=Tiny Tim - I Saw Mommy Kissing Santa Claus
EXTD=Chrsitmas Collection
EXTT0=
EXTT1=
EXTT2=
EXTT3=
EXTT4=
EXTT5=
EXTT6=
EXTT7=
EXTT8=
EXTT9=
EXTT10=
EXTT11=
EXTT12=
EXTT13=
EXTT14=
EXTT15=
PLAYORDER=
